<mxfile host="app.diagrams.net" agent="Mozilla/5.0 (Macintosh; Intel Mac OS X 10_15_7) AppleWebKit/537.36 (KHTML, like Gecko) Chrome/139.0.0.0 Safari/537.36" version="28.2.7">
  <diagram name="Page-1" id="0TEKbB5VJegybQpXMnEQ">
    <mxGraphModel dx="1018" dy="613" grid="1" gridSize="10" guides="1" tooltips="1" connect="1" arrows="1" fold="1" page="1" pageScale="1" pageWidth="850" pageHeight="1100" math="0" shadow="0">
      <root>
        <mxCell id="0" />
        <mxCell id="1" parent="0" />
        <mxCell id="xD3SuOGyy335sVKMDIJ0-3" value="Actor" style="shape=umlActor;verticalLabelPosition=bottom;verticalAlign=top;html=1;" vertex="1" parent="1">
          <mxGeometry x="405" y="160" width="30" height="60" as="geometry" />
        </mxCell>
        <mxCell id="xD3SuOGyy335sVKMDIJ0-6" value="Xem chi tiết phim" style="ellipse;whiteSpace=wrap;html=1;" vertex="1" parent="1">
          <mxGeometry x="350" y="280" width="140" height="70" as="geometry" />
        </mxCell>
        <mxCell id="xD3SuOGyy335sVKMDIJ0-7" value="Xem trailer" style="html=1;whiteSpace=wrap;" vertex="1" parent="1">
          <mxGeometry x="270" y="390" width="110" height="50" as="geometry" />
        </mxCell>
        <mxCell id="xD3SuOGyy335sVKMDIJ0-8" value="Xem bình luận" style="html=1;whiteSpace=wrap;" vertex="1" parent="1">
          <mxGeometry x="450" y="390" width="110" height="50" as="geometry" />
        </mxCell>
        <mxCell id="xD3SuOGyy335sVKMDIJ0-9" value="Extends" style="endArrow=block;endSize=16;endFill=0;html=1;rounded=0;exitX=0;exitY=0.5;exitDx=0;exitDy=0;entryX=0.75;entryY=0;entryDx=0;entryDy=0;" edge="1" parent="1" source="xD3SuOGyy335sVKMDIJ0-6" target="xD3SuOGyy335sVKMDIJ0-7">
          <mxGeometry width="160" relative="1" as="geometry">
            <mxPoint x="320" y="320" as="sourcePoint" />
            <mxPoint x="320" y="390" as="targetPoint" />
            <Array as="points" />
          </mxGeometry>
        </mxCell>
        <mxCell id="xD3SuOGyy335sVKMDIJ0-12" value="Extends" style="endArrow=block;endSize=16;endFill=0;html=1;rounded=0;entryX=0.75;entryY=0;entryDx=0;entryDy=0;exitX=1;exitY=0.5;exitDx=0;exitDy=0;" edge="1" parent="1" source="xD3SuOGyy335sVKMDIJ0-6">
          <mxGeometry width="160" relative="1" as="geometry">
            <mxPoint x="490" y="330" as="sourcePoint" />
            <mxPoint x="490" y="390" as="targetPoint" />
            <Array as="points" />
          </mxGeometry>
        </mxCell>
        <mxCell id="xD3SuOGyy335sVKMDIJ0-14" value="" style="endArrow=classic;html=1;rounded=0;entryX=0.5;entryY=0;entryDx=0;entryDy=0;" edge="1" parent="1" source="xD3SuOGyy335sVKMDIJ0-3" target="xD3SuOGyy335sVKMDIJ0-6">
          <mxGeometry width="50" height="50" relative="1" as="geometry">
            <mxPoint x="400" y="380" as="sourcePoint" />
            <mxPoint x="450" y="330" as="targetPoint" />
          </mxGeometry>
        </mxCell>
      </root>
    </mxGraphModel>
  </diagram>
</mxfile>
